HIERARCHY
ROOT Hips
{
	OFFSET -0.179506 -22.333345 2.821913
	CHANNELS 6 Xposition Yposition Zposition Zrotation Yrotation Xrotation 
	JOINT LeftUpLeg
	{
		OFFSET 6.951974 -9.140623 -0.681533
		CHANNELS 3 Zrotation Yrotation Xrotation
		JOINT LeftLeg
		{
			OFFSET 3.427654 -37.519855 -0.449580
			CHANNELS 3 Zrotation Yrotation Xrotation
			JOINT LeftFoot
			{
				OFFSET -1.359570 -39.796059 -4.369333
				CHANNELS 3 Zrotation Yrotation Xrotation
				JOINT LeftToe
				{
					OFFSET 2.635814 -5.579078 11.928840
					CHANNELS 3 Zrotation Yrotation Xrotation
					End Site
					{
						OFFSET 0.000000 0.000000 0.000000
					}
				}
			}
		}
	}
	JOINT RightUpLeg
	{
		OFFSET -6.767048 -9.052170 -0.431982
		CHANNELS 3 Zrotation Yrotation Xrotation
		JOINT RightLeg
		{
			OFFSET -3.829005 -38.256897 -0.885003
			CHANNELS 3 Zrotation Yrotation Xrotation
			JOINT RightFoot
			{
				OFFSET 1.577377 -39.841461 -4.231180
				CHANNELS 3 Zrotation Yrotation Xrotation
				JOINT RightToe
				{
					OFFSET -2.537174 -4.814398 12.334795
					CHANNELS 3 Zrotation Yrotation Xrotation
					End Site
					{
						OFFSET 0.000000 0.000000 0.000000
					}
				}
			}
		}
	}
	JOINT Spine
	{
		OFFSET -0.253288 10.896323 -2.669631
		CHANNELS 3 Zrotation Yrotation Xrotation
		JOINT Spine1
		{
			OFFSET 0.548704 13.518043 0.109247
			CHANNELS 3 Zrotation Yrotation Xrotation
			JOINT Spine2
			{
				OFFSET 0.145701 5.292222 2.542457
				CHANNELS 3 Zrotation Yrotation Xrotation
				JOINT Neck
				{
					OFFSET -0.277840 21.387037 -4.285703
					CHANNELS 3 Zrotation Yrotation Xrotation
					JOINT Head
					{
						OFFSET 0.515184 6.496960 5.134897
						CHANNELS 3 Zrotation Yrotation Xrotation
						End Site
						{
							OFFSET 0.000000 0.000000 0.000000
						}
					}
				}
				JOINT LeftShoulder
				{
					OFFSET 7.884473 12.174932 -3.408961
					CHANNELS 3 Zrotation Yrotation Xrotation
					JOINT LeftArm
					{
						OFFSET 9.097692 3.046888 -0.886815
						CHANNELS 3 Zrotation Yrotation Xrotation
						JOINT LeftForeArm
						{
							OFFSET 25.961220 -1.277207 -2.745643
							CHANNELS 3 Zrotation Yrotation Xrotation
							JOINT LeftHand
							{
								OFFSET 24.923361 0.898606 -0.117091
								CHANNELS 3 Zrotation Yrotation Xrotation
								End Site
								{
									OFFSET 0.000000 0.000000 0.000000
								}
							}
						}
					}
				}
				JOINT RightShoulder
				{
					OFFSET -8.175920 11.883285 -3.861528
					CHANNELS 3 Zrotation Yrotation Xrotation
					JOINT RightArm
					{
						OFFSET -9.601238 3.255117 -0.914307
						CHANNELS 3 Zrotation Yrotation Xrotation
						JOINT RightForeArm
						{
							OFFSET -25.374195 -1.332924 -2.140099
							CHANNELS 3 Zrotation Yrotation Xrotation
							JOINT RightHand
							{
								OFFSET -25.529810 0.777228 -0.555919
								CHANNELS 3 Zrotation Yrotation Xrotation
								End Site
								{
									OFFSET 0.000000 0.000000 0.000000
								}
							}
						}
					}
				}
			}
		}
	}
}
MOTION
Frames: 8
Frame Time: 0.033333
-0.179506 106.222092 2.821913 -175.526143 84.092143 -176.237105 -5.272360 -0.536510 5.450517 1.466356 -7.412617 2.646464 2.900037 8.460918 -13.357690 1.142270 1.680359 0.624381 -0.344075 -0.137729 2.254254 -2.510891 0.587923 8.029587 2.779214 -7.654961 -8.203027 4.680460 -2.839511 0.097650 -2.837335 2.337603 0.460098 4.583409 -5.382204 6.557978 -1.411951 -1.691650 -3.346433 -2.380044 0.241521 8.165362 4.044949 4.671114 -1.980128 -23.034627 3.480636 4.093307 -47.480274 -7.727945 7.832202 8.306629 -37.315292 -0.177845 -4.151742 -11.406497 -3.080999 17.594773 -1.621633 1.027628 46.051363 -2.563822 0.096262 -37.235915 35.431937 -42.120786 -6.318683 8.761023 -25.971406 
-0.026498 106.211746 2.841367 -175.409967 84.200633 -176.207238 -5.268202 -0.554171 5.829920 1.481876 -7.340901 2.315455 2.924047 8.621299 -13.307853 1.144227 1.675988 0.638142 -0.314717 -0.172749 2.699666 -2.520061 0.879508 7.582555 2.737242 -7.721491 -8.210767 4.669201 -2.862330 0.086342 -2.845557 2.411923 0.307199 4.678577 -5.372392 6.544975 -1.416043 -1.600203 -3.426141 -2.442751 0.182900 8.207956 3.905118 4.508671 -1.759558 -22.934289 3.519088 3.940462 -47.721548 -7.802652 7.999733 8.407907 -37.210663 -0.591773 -4.096110 -11.306818 -3.036934 17.603333 -1.661425 0.947585 45.930190 -2.584725 0.384373 -37.179409 35.423588 -41.593417 -6.402966 8.703388 -24.727616 
0.125654 106.184601 2.823039 -174.703719 84.492329 -175.392323 -5.316150 -0.718972 5.717943 1.466213 -7.229265 2.549025 3.027264 8.967017 -13.445030 1.246296 1.648179 0.601648 -0.286832 -0.028770 2.612159 -2.489047 1.232832 7.685434 2.613271 -7.774612 -8.309502 4.678732 -2.860076 0.063966 -2.750275 2.468874 0.322498 4.706219 -5.305841 6.541432 -1.412913 -1.471841 -3.547887 -2.489273 0.161402 8.039047 3.855886 4.497286 -1.613457 -22.927833 3.418501 3.809939 -47.792019 -7.904152 8.011191 8.668065 -37.191887 -1.233704 -4.207524 -11.215568 -3.058578 17.606256 -1.482316 0.934844 45.857272 -2.496213 0.880153 -37.017368 35.926105 -40.566068 -6.154743 8.921681 -23.362972 
0.352902 106.143265 2.833416 -174.831249 85.038857 -175.290336 -5.495482 -0.849585 5.517663 1.473329 -7.123814 2.821050 3.195152 9.360217 -13.530069 1.307815 1.636820 0.584473 -0.337969 0.139193 2.362616 -2.554194 1.609061 7.876519 2.556045 -7.664600 -8.517545 4.604326 -2.833788 0.028445 -2.663551 2.506371 0.389288 4.646227 -5.174370 6.557655 -1.426994 -1.342495 -3.574459 -2.502036 0.131065 7.867156 3.904444 4.433727 -1.737307 -22.916118 3.163732 3.747840 -47.467781 -7.871432 8.046016 8.692835 -37.405418 -1.770820 -3.710404 -11.430962 -2.937989 17.580663 -1.034074 0.981403 45.937987 -2.332614 1.791320 -36.490020 37.489749 -39.048857 -6.194476 9.433840 -21.791071 
0.694521 106.092484 2.766385 -174.956488 85.640630 -175.155935 -5.735931 -1.000942 5.388779 1.449162 -7.120297 3.063632 3.494038 9.864645 -13.541708 1.236114 1.654940 0.614092 -0.378010 0.270769 2.106474 -2.752466 1.959983 8.149606 2.573021 -7.537667 -8.746127 4.412501 -2.806596 -0.069787 -2.666026 2.478940 0.475477 4.530125 -4.966836 6.456643 -1.359419 -1.212130 -3.417876 -2.503807 0.252879 7.716856 3.987590 4.517681 -2.027058 -22.881401 2.799317 3.732396 -47.042207 -7.595091 8.346173 8.455890 -37.866755 -2.214850 -2.740051 -11.855124 -2.800905 17.618523 -0.291068 1.085189 45.912884 -2.155527 3.218625 -34.854033 40.245412 -36.490286 -6.214370 10.050432 -20.170660 
1.061979 106.034576 2.411754 -168.568987 86.729012 -168.216382 -5.789996 -1.059708 5.117811 1.323521 -6.674404 3.009141 3.818662 10.219033 -13.489816 1.318703 1.664554 0.761948 -0.427770 0.563537 1.574410 -2.847627 2.038654 8.178321 2.866011 -6.919513 -8.633760 4.176952 -2.685728 -0.117766 -2.422965 2.381726 0.824995 4.445446 -4.696889 5.963865 -1.278198 -1.060917 -3.156101 -2.570617 0.376137 7.437387 3.836017 4.955181 -2.034253 -22.762988 2.489939 3.837515 -46.769156 -7.443511 8.354054 7.831427 -38.440020 -1.901267 -1.957582 -12.523270 -2.751159 17.542741 0.283991 1.393095 46.257349 -2.142144 5.846132 -32.298322 45.307425 -31.209896 -4.965841 10.978364 -17.321906 
1.103452 105.965988 2.248911 -159.816950 87.628609 -159.167194 -5.834049 -1.391594 4.483948 1.068946 -6.402693 3.714466 4.112376 10.887541 -13.747603 1.453510 1.647112 0.765603 -0.450923 1.005042 0.847206 -2.841410 2.381845 8.761001 2.944978 -6.601061 -8.878627 4.098099 -2.635975 -0.188168 -2.387684 2.313298 1.550905 4.310575 -4.514162 5.490192 -1.205072 -0.924511 -2.768064 -2.482849 0.788952 6.867853 3.781020 5.422404 -2.236475 -22.591011 1.984813 3.654185 -46.860874 -7.762671 8.699806 7.542165 -38.647648 -1.601376 -0.885543 -13.039362 -3.221729 17.455866 0.934911 1.323802 46.958825 -1.724381 7.919423 -29.000744 48.301626 -25.862510 -4.133897 11.592729 -15.198614 
0.877434 105.894577 2.157955 -135.814470 88.450682 -134.922093 -5.731385 -1.808992 3.546254 0.764403 -6.158750 4.715040 4.361173 11.685029 -14.140905 1.727384 1.656307 0.705790 -0.419244 1.496893 -0.195385 -2.683679 2.683403 9.627575 2.944953 -6.204581 -9.143019 4.142087 -2.656203 -0.226060 -2.287290 2.281945 2.504049 4.268557 -4.407402 5.186289 -1.111827 -0.813682 -2.523167 -2.442311 1.239368 6.003826 3.572659 5.856434 -2.588095 -22.434004 1.540793 3.499111 -47.433229 -8.251180 9.197178 7.254801 -38.663569 -1.027655 -0.311215 -13.333045 -3.642324 17.384628 1.609335 1.168185 48.296192 -1.134316 9.887299 -25.405803 49.626881 -20.308245 -3.155901 11.891296 -12.925119 
